{
  "accessors": [
    {
      "bufferView": 2,
      "componentType": 5126,
      "count": 65532,
      "max": [
        2.3102142810821533,
        130.1198272705078,
        6.120319843292236
      ],
      "min": [
        -5.8001532554626465,
        124.05522155761719,
        -6.039395332336426
      ],
      "type": "VEC3"
    },
    {
      "bufferView": 2,
      "byteOffset": 786384,
      "componentType": 5126,
      "count": 65532,
      "max": [
        0.9999642968177795,
        0.999940812587738,
        0.9999199509620667
      ],
      "min": [
        -0.9996927976608276,
        -0.9998843669891357,
        -0.9999832510948181
      ],
      "type": "VEC3"
    },
    {
      "bufferView": 1,
      "componentType": 5126,
      "count": 65532,
      "max": [
        0.9608666896820068,
        0.9877364635467529
      ],
      "min": [
        0.023653030395507813,
        0.025935620069503784
      ],
      "type": "VEC2"
    },
    {
      "bufferView": 0,
      "componentType": 5125,
      "count": 303765,
      "type": "SCALAR"
    },
    {
      "bufferView": 2,
      "byteOffset": 1572768,
      "componentType": 5126,
      "count": 65532,
      "max": [
        5.79805850982666,
        130.11972045898438,
        3.7489676475524902
      ],
      "min": [
        -5.134218215942383,
        127.03462219238281,
        -6.052614688873291
      ],
      "type": "VEC3"
    },
    {
      "bufferView": 2,
      "byteOffset": 2359152,
      "componentType": 5126,
      "count": 65532,
      "max": [
        0.9997114539146423,
        0.9997949004173279,
        0.9998767971992493
      ],
      "min": [
        -0.9999972581863403,
        -0.9999852776527405,
        -0.9999590516090393
      ],
      "type": "VEC3"
    },
    {
      "bufferView": 1,
      "byteOffset": 524256,
      "componentType": 5126,
      "count": 65532,
      "max": [
        0.9608591198921204,
        0.40331462025642395
      ],
      "min": [
        0.6020008325576782,
        0.0392317995429039
      ],
      "type": "VEC2"
    },
    {
      "bufferView": 0,
      "byteOffset": 1215060,
      "componentType": 5125,
      "count": 290109,
      "type": "SCALAR"
    },
    {
      "bufferView": 2,
      "byteOffset": 3145536,
      "componentType": 5126,
      "count": 41958,
      "max": [
        5.132468223571777,
        129.2121124267578,
        5.567621231079102
      ],
      "min": [
        -2.4731969833374023,
        125.17025756835938,
        0.1830340027809143
      ],
      "type": "VEC3"
    },
    {
      "bufferView": 2,
      "byteOffset": 3649032,
      "componentType": 5126,
      "count": 41958,
      "max": [
        0.9998548626899719,
        0.9999749660491943,
        0.9999511241912842
      ],
      "min": [
        -0.9999985694885254,
        -0.9998960494995117,
        -0.9999215006828308
      ],
      "type": "VEC3"
    },
    {
      "bufferView": 1,
      "byteOffset": 1048512,
      "componentType": 5126,
      "count": 41958,
      "max": [
        0.9607518911361694,
        0.4023520350456238
      ],
      "min": [
        0.3007366955280304,
        0.0392317995429039
      ],
      "type": "VEC2"
    },
    {
      "bufferView": 0,
      "byteOffset": 2375496,
      "componentType": 5125,
      "count": 184578,
      "type": "SCALAR"
    },
    {
      "bufferView": 2,
      "byteOffset": 4152528,
      "componentType": 5126,
      "count": 1864,
      "max": [
        2.0102689266204834,
        127.0849609375,
        6.111028671264648
      ],
      "min": [
        -2.4056568145751953,
        124.13329315185547,
        3.8575050830841064
      ],
      "type": "VEC3"
    },
    {
      "bufferView": 2,
      "byteOffset": 4174896,
      "componentType": 5126,
      "count": 1864,
      "max": [
        0.9880533218383789,
        0.9980589151382446,
        0.9972934126853943
      ],
      "min": [
        -0.988057017326355,
        -0.9979921579360962,
        -0.9142431616783142
      ],
      "type": "VEC3"
    },
    {
      "bufferView": 1,
      "byteOffset": 1384176,
      "componentType": 5126,
      "count": 1864,
      "max": [
        0.9790005683898926,
        0.6525908708572388
      ],
      "min": [
        0.5322209596633911,
        0.5071789026260376
      ],
      "type": "VEC2"
    },
    {
      "bufferView": 0,
      "byteOffset": 3113808,
      "componentType": 5125,
      "count": 2580,
      "type": "SCALAR"
    }
  ],
  "asset": {
    "extras": {
      "author": "lil_lunamoth (https://sketchfab.com/lil_lunamoth)",
      "license": "CC-BY-4.0 (http://creativecommons.org/licenses/by/4.0/)",
      "source": "https://sketchfab.com/3d-models/necklace01-0fd1603688404684a30046be2df7146b",
      "title": "Necklace01"
    },
    "generator": "Sketchfab-17.14.0",
    "version": "2.0"
  },
  "bufferViews": [
    {
      "buffer": 0,
      "byteLength": 3124128,
      "name": "floatBufferViews",
      "target": 34963
    },
    {
      "buffer": 0,
      "byteLength": 1399088,
      "byteOffset": 3124128,
      "byteStride": 8,
      "name": "floatBufferViews",
      "target": 34962
    },
    {
      "buffer": 0,
      "byteLength": 4197264,
      "byteOffset": 4523216,
      "byteStride": 12,
      "name": "floatBufferViews",
      "target": 34962
    }
  ],
  "buffers": [
    {
      "byteLength": 8720480,
      "uri": "scene.bin"
    }
  ],
  "extensionsUsed": [
    "KHR_materials_specular"
  ],
  "materials": [
    {
      "doubleSided": true,
      "extensions": {
        "KHR_materials_specular": {
          "specularColorFactor": [
            1.0,
            1.0,
            1.0
          ],
          "specularFactor": 1.0
        }
      },
      "name": "Metal",
      "pbrMetallicRoughness": {
        "baseColorFactor": [
          1.0,
          0.7230551289219691,
          0.25015828472995333,
          1.0
        ],
        "roughnessFactor": 0.0
      }
    },
    {
      "doubleSided": true,
      "extensions": {
        "KHR_materials_specular": {
          "specularColorFactor": [
            1.0,
            1.0,
            1.0
          ],
          "specularFactor": 1.0
        }
      },
      "name": "material",
      "pbrMetallicRoughness": {
        "baseColorFactor": [
          0.800094,
          0.253454,
          0.6705609999999996,
          1.0
        ],
        "metallicFactor": 0.3337153027513988,
        "roughnessFactor": 0.1725689068766686
      }
    }
  ],
  "meshes": [
    {
      "name": "necklace_Metal_0",
      "primitives": [
        {
          "attributes": {
            "NORMAL": 1,
            "POSITION": 0,
            "TEXCOORD_0": 2
          },
          "indices": 3,
          "material": 0,
          "mode": 4
        }
      ]
    },
    {
      "name": "necklace_Metal_0",
      "primitives": [
        {
          "attributes": {
            "NORMAL": 5,
            "POSITION": 4,
            "TEXCOORD_0": 6
          },
          "indices": 7,
          "material": 0,
          "mode": 4
        }
      ]
    },
    {
      "name": "necklace_Metal_0",
      "primitives": [
        {
          "attributes": {
            "NORMAL": 9,
            "POSITION": 8,
            "TEXCOORD_0": 10
          },
          "indices": 11,
          "material": 0,
          "mode": 4
        }
      ]
    },
    {
      "name": "necklace_Gem_0",
      "primitives": [
        {
          "attributes": {
            "NORMAL": 13,
            "POSITION": 12,
            "TEXCOORD_0": 14
          },
          "indices": 15,
          "material": 1,
          "mode": 4
        }
      ]
    }
  ],
  "nodes": [
    {
      "children": [
        1
      ],
      "matrix": [
        1.0,
        0.0,
        0.0,
        0.0,
        0.0,
        2.220446049250313e-16,
        -1.0,
        0.0,
        0.0,
        1.0,
        2.220446049250313e-16,
        0.0,
        0.0,
        0.0,
        0.0,
        1.0
      ],
      "name": "Sketchfab_model"
    },
    {
      "children": [
        2
      ],
      "matrix": [
        0.009999999776482582,
        0.0,
        0.0,
        0.0,
        0.0,
        0.0,
        0.009999999776482582,
        0.0,
        0.0,
        -0.009999999776482582,
        0.0,
        0.0,
        0.0,
        0.0,
        0.0,
        1.0
      ],
      "name": "ce24f98f808d4341b9f91ea0ff33a752.fbx"
    },
    {
      "children": [
        3
      ],
      "name": "RootNode"
    },
    {
      "children": [
        4,
        5,
        6,
        7
      ],
      "matrix": [
        1.0811184644699097,
        0.0,
        0.0,
        0.0,
        0.0,
        1.0811184644699086,
        4.72571889844061e-08,
        0.0,
        0.0,
        -4.72571889844061e-08,
        1.0811184644699086,
        0.0,
        0.0,
        0.0,
        0.0,
        1.0
      ],
      "name": "necklace"
    },
    {
      "mesh": 0,
      "name": "necklace_Metal_0"
    },
    {
      "mesh": 1,
      "name": "necklace_Metal_0"
    },
    {
      "mesh": 2,
      "name": "necklace_Metal_0"
    },
    {
      "mesh": 3,
      "name": "necklace_Gem_0"
    }
  ],
  "scene": 0,
  "scenes": [
    {
      "name": "Sketchfab_Scene",
      "nodes": [
        0
      ]
    }
  ]
}
